<svg xmlns="http://www.w3.org/2000/svg" viewBox="0 0 120 150"><defs><linearGradient id="a" x2="1" y2="1"><stop stop-color="#1be7ff"/><stop offset=".45" stop-color="#17385e"/><stop offset="1" stop-color="#050913"/></linearGradient><filter id="g"><feGaussianBlur stdDeviation="3"/></filter></defs><ellipse cx="60" cy="137" rx="34" ry="9" fill="#00eaff" opacity=".25" filter="url(#g)"/><path d="M40 50 27 72l8 40 18-4 7-45z" fill="#10243d" stroke="#42eaff" stroke-width="3"/><path d="M80 50 94 73l-9 39-18-5-7-44z" fill="#10243d" stroke="#42eaff" stroke-width="3"/><path d="M43 47Q60 34 78 47l8 55-26 16-27-16z" fill="url(#a)" stroke="#5df2ff" stroke-width="3"/><circle cx="60" cy="31" r="18" fill="#17283e" stroke="#5df2ff" stroke-width="3"/><path d="M45 29h30l-4 9H49z" fill="#07111c"/><path d="M50 31h20" stroke="#9cffff" stroke-width="4"/><path d="m43 108-9 32h19l9-31m15-1 9 32H67l-7-31" fill="#101d31" stroke="#4acbe8" stroke-width="3"/><path d="M73 65h38v9H72z" fill="#202b35" stroke="#e7fbff" stroke-width="2"/><path d="m108 67 10 3-10 3" fill="#ffdf63"/><circle cx="47" cy="65" r="4" fill="#00eaff"/><circle cx="74" cy="65" r="4" fill="#00eaff"/></svg>